:SAMPLES-PER-SECOND 30
:FULLY-SPECIFIED
:DEGREES
83
root  -9.93726 40.3581 -1.01046 141.107 -84.5433 -129.372
RightUpLeg  -14.2463 1.83037 2.30078
RightLeg  0.31249 -24.4469 2.05968
RightFoot  2.91959 -0.204308 1.82853
RightToes  -3.13006e-008 1.75238e-005 3.56266e-009
Spine  19.4416 1.14368 5.46973
Spine1  8.474 2.62127 -3.72404
HEad  -19.9468 -2.52078 -1.35678
LeftShoulder1  3.6694 -8.73495 -23.759
LeftArm  -20.5776 -40.8484 -67.8396
LeftForeArm  37.8829 -59.9086 -15.9476
LeftHand  -1.65465 -3.58696 21.4543
RightShoulder  4.10488 10.2648 23.6383
RightArm  -7.06813 43.6295 51.2833
RightForeArm  24.232 49.7248 11.3939
RightHand  -5.06092 12.6368 -32.077
LeftUpLeg  -23.916 6.9102 9.15159
LeftLeg  5.93289 6.48299 -1.17513
LeftFoot  8.19946 0.503933 -3.21659
LeftToes  4.78512e-008 1.47396e-008 1.32451e-009
84
root  -9.82602 40.3508 -0.958062 142.126 -84.5666 -129.86
RightUpLeg  -15.0555 1.94752 2.15972
RightLeg  0.34749 -24.5281 1.97617
RightFoot  3.22859 -0.197263 1.74352
RightToes  -3.13006e-008 1.75238e-005 3.56266e-009
Spine  20.372 0.951019 5.89967
Spine1  8.22259 2.6519 -4.32049
HEad  -19.9587 -2.83171 -1.23301
LeftShoulder1  3.56609 -8.56672 -23.2961
LeftArm  -20.6203 -40.7981 -67.6604
LeftForeArm  38.272 -61.1387 -16.8569
LeftHand  -1.61668 -3.26409 21.728
RightShoulder  4.10646 10.1324 23.9576
RightArm  -9.41069 44.4951 52.586
RightForeArm  23.6096 49.6669 11.4265
RightHand  -5.26207 12.5826 -33.367
LeftUpLeg  -24.4128 6.54983 9.15019
LeftLeg  5.39468 6.97851 -1.30795
LeftFoot  8.72231 0.487643 -3.05777
LeftToes  4.78512e-008 1.47396e-008 1.32451e-009
85
root  -9.77101 40.3558 -0.895359 146.016 -84.3337 -133.29
RightUpLeg  -15.6375 2.05946 2.00691
RightLeg  0.218851 -24.23 1.96341
RightFoot  3.53039 -0.206123 1.90524
RightToes  -3.13006e-008 1.75238e-005 3.56266e-009
Spine  20.6198 0.869673 5.9687
Spine1  8.51182 2.65367 -4.51321
HEad  -19.8995 -2.90315 -1.33218
LeftShoulder1  3.45702 -8.31893 -22.9787
LeftArm  -21.2362 -40.4958 -67.388
LeftForeArm  38.7261 -62.2437 -17.7268
LeftHand  -1.60224 -3.36864 21.2946
RightShoulder  4.02946 9.97586 23.7235
RightArm  -6.4133 45.0518 53.1746
RightForeArm  24.7368 51.1331 12.0077
RightHand  -5.33443 12.4867 -33.9637
LeftUpLeg  -24.7208 6.45722 9.16341
LeftLeg  5.00568 7.55101 -1.49742
LeftFoot  9.05861 0.452387 -2.82156
LeftToes  4.78512e-008 1.47396e-008 1.32451e-009
86
root  -9.75082 40.3568 -0.839789 150.735 -83.987 -137.559
RightUpLeg  -16.2294 2.08555 1.83675
RightLeg  0.206043 -23.7028 1.97553
RightFoot  3.74011 -0.197899 1.79031
RightToes  -3.13006e-008 1.75238e-005 3.56266e-009
Spine  20.5044 0.99246 5.51059
Spine1  8.94067 2.57008 -3.92236
HEad  -20.1168 -2.65531 -1.75707
LeftShoulder1  3.4373 -8.1339 -23.2887
LeftArm  -21.8057 -40.3898 -66.4898
LeftForeArm  38.7386 -62.7015 -18.1353
LeftHand  -1.59199 -3.21499 21.525
RightShoulder  3.84819 9.90357 22.4633
RightArm  -0.937037 45.2722 54.2471
RightForeArm  27.4482 52.9413 12.6708
RightHand  -5.39861 12.8413 -33.7194
LeftUpLeg  -25.0413 6.38273 9.12677
LeftLeg  4.85199 8.25387 -1.54608
LeftFoot  9.18875 0.415558 -2.60457
LeftToes  4.78512e-008 1.47396e-008 1.32451e-009
87
root  -9.74373 40.3622 -0.77799 156.087 -83.4929 -142.538
RightUpLeg  -16.7395 2.09553 1.65773
RightLeg  0.211768 -23.0418 1.96838
RightFoot  3.94552 -0.192294 1.69297
RightToes  -3.13006e-008 1.75238e-005 3.56266e-009
Spine  20.8711 1.05503 5.58608
Spine1  8.32898 2.75003 -4.35185
HEad  -19.9134 -2.5856 -1.68097
LeftShoulder1  3.39193 -7.98928 -23.2653
LeftArm  -22.2206 -39.6888 -66.3128
LeftForeArm  39.2733 -62.9652 -18.314
LeftHand  -1.61154 -3.46687 21.1851
RightShoulder  3.78634 9.77876 22.2563
RightArm  5.14587 45.2729 54.1616
RightForeArm  29.644 54.4127 13.2517
RightHand  -5.47663 13.0569 -33.8012
LeftUpLeg  -25.2125 6.28355 9.09098
LeftLeg  4.67167 9.11533 -1.57803
LeftFoot  9.293 0.379975 -2.39929
LeftToes  4.78512e-008 1.47396e-008 1.32451e-009
88
root  -9.74895 40.3648 -0.732816 158.927 -83.1939 -145.044
RightUpLeg  -17.0646 2.18638 1.56152
RightLeg  0.0159252 -22.7931 1.94999
RightFoot  4.16532 -0.190902 1.60712
RightToes  -3.13006e-008 1.75238e-005 3.56266e-009
Spine  20.898 1.03488 5.9145
Spine1  8.05515 2.90477 -4.92027
HEad  -19.9758 -2.77081 -1.16927
LeftShoulder1  3.31836 -7.72109 -23.3173
LeftArm  -22.1859 -39.3481 -66.6205
LeftForeArm  39.4033 -62.8797 -18.2232
LeftHand  -1.63159 -3.6867 20.94
RightShoulder  3.85673 9.90468 22.5268
RightArm  8.07902 45.1798 54.2107
RightForeArm  31.9075 54.693 13.2088
RightHand  -5.3678 12.6969 -33.7902
LeftUpLeg  -25.4265 6.16321 9.04023
LeftLeg  4.55029 9.6912 -1.56392
LeftFoot  9.38088 0.35368 -2.2481
LeftToes  4.78512e-008 1.47396e-008 1.32451e-009
